<?xml version="1.0" encoding="utf-8"?>
<!-- Generator: Adobe Illustrator 21.1.0, SVG Export Plug-In . SVG Version: 6.00 Build 0)  -->
<svg version="1.1" id="Capa_1" xmlns="http://www.w3.org/2000/svg" xmlns:xlink="http://www.w3.org/1999/xlink" x="0px" y="0px"
	 viewBox="0 0 541.8 541.8" style="enable-background:new 0 0 541.8 541.8;" xml:space="preserve">
<style type="text/css">
	.st0{fill:#FF0000;stroke:#000000;stroke-miterlimit:10;}
</style>
<g>
	<g>
		<path d="M231.8,215.9c-1.9-2-4.3-3.8-6.9-5.6l10.2-1.1l3.5-12.4c-0.5-0.4-11.8-9.4-11.5-27.8l-13.8-0.2c-0.2,12.3,3.5,21.6,7.5,28
			l-19.4,2.1l-1.9,13.3c4.3,1.8,16.8,7.8,22.5,13.5c4.7,4.7,17.1,17.1,6.1,72.2l13.6,2.7C252.7,245.3,242.2,226.3,231.8,215.9z"/>
		<path d="M540.9,37.5c-1.7-22.5-4.6-35.6-14.4-36.3c-0.2,0-0.3,0-0.5,0c-13,0-21.6,32.1-25.6,51.4c-1.3,6.3-7.2,17.7-13.4,29.8
			c-6,11.6-12.8,24.8-17.9,37.8c-5.2,13.1-50.1,30.1-79.2,29.8c-7.7-5.1-36.7-22.4-69.3-15c-6.6-4.4-23.9-13.8-50.4-13.8
			c-26.5,0-43.8,9.5-50.4,13.8c-32.5-7.3-61.6,9.9-69.3,15c-28.1,0.3-66.9-16.2-73.5-25.9c-14.1-20.6-33.2-54.9-35.6-66.7
			C41.2,56.8,26.1,3.6,9.6,6.1C-0.3,7.6-1.1,20.9,0.8,43.4c4.9,57.3,10.2,73.9,17.7,96.8c1.8,5.5,3.7,11.5,5.9,18.6
			c4.8,16,18.7,23.5,28.8,29c3.2,1.7,6.3,3.4,8.2,4.9c1.6,1.2,3.2,2.3,4.8,3.4c1.2,7.9,5,27.9,13.4,42.9c2.1,3.7,3.4,6.6,4.4,9
			c5.5,12.3,9.2,14.2,30.6,15.2c25.4,1.3,35.5,3.9,41.9,6.7c-2.1,3.2-4.1,7.1-4.7,11.6c-12.7,9.7-40.9,34.1-34.4,79.8
			c3.6,25.5,29.2,55.6,47.2,74c-5.5,5.4-11.8,14.3-8.3,24.6c4,11.5,31.3,28.9,43.8,36.3c0.5,5.7,2.7,15.7,11.1,24.9
			c11.9,13,31.7,19.5,58.8,19.5c27.1,0,46.9-6.6,58.8-19.5c8.4-9.2,10.6-19.2,11.1-24.9c12.5-7.4,39.8-24.8,43.8-36.3
			c3.5-10.3-2.8-19.2-8.3-24.6c18-18.5,43.5-48.5,47.2-74c6.5-45.7-21.7-70.1-34.4-79.8c-0.6-4.4-2.5-8.3-4.6-11.4
			c9.7-2.8,25.6-6.1,41.8-6.9c21.4-1.1,25.2-2.9,30.6-15.2c1.1-2.4,2.4-5.4,4.4-9c8.4-15,12.2-35,13.4-42.9c1.1-0.7,2.1-1.4,3.1-2.1
			c1.9-1.4,4.7-3,7.6-4.6c11.1-6.3,26.3-14.9,31.4-32.3c2.9-9.7,6.4-17.6,9.9-25.4C535.3,110.9,544.8,89.5,540.9,37.5z M78.8,187.3
			c-3.2-1.7-6.2-3.5-8.9-5.6c-2.8-2.2-6.4-4.1-10.1-6.1c-8.9-4.8-19-10.2-22.1-20.8c-2.1-7.2-4.1-13.3-6-18.9
			c-7.4-22.9-12.4-38-17.1-93.7c-0.6-7.2-0.8-12.3-0.7-15.9c5.5,9.8,12.4,27,13.9,33.9c3.1,14.9,24,51.8,37.7,71.8
			c10.5,15.3,54.1,31.4,84.2,31.9c2.4,2.8,7.2,9.4,10,21.2c2.7,11,1.2,23.2-0.2,30.4c-13.1-3.2-42.3-10.7-59.8-18.6
			c-2.7-1.2-5.4-2.4-7.9-3.5C87.2,191.3,82.8,189.4,78.8,187.3z M166,281.7c0.8-2.4,2.3-4.7,3.8-6.4c5.1,2.6,10.5,6.1,13.4,10.2
			c1.4,2,2.7,4,4.1,5.9c-9,1.4-18.5,1.3-20.6-2.6C165.3,286.4,165.3,283.9,166,281.7z M184.7,261c-0.9-1.8-1.7-3.5-2.6-5.3
			c-1.9-3.8-3.5-7.1-4.7-9.9c0,0,0-0.1-0.1-0.1c-2.4-6.1-2.8-10.2-0.8-13.6c0.9-1.6,2.3-3,4.3-4.5c10.7-1.2,20.4-0.5,22.1,3.3
			c0.1,0.2,7.8,15.4,7.3,37.6c-0.3,13.4-1.3,22-2.2,27.2c-1-1.2-2.1-2.6-3.2-4c0-0.1-0.1-0.1-0.1-0.2c-3.2-4.1-6.7-9-10-13.9
			c-0.1-0.1-0.1-0.2-0.2-0.3C190.6,271.8,187.1,266,184.7,261z M96.7,242.3c-1.2-2.7-2.7-6-5-10.2c-4.8-8.6-8-19.6-9.8-28.1
			c1.1,0.5,2.1,0.9,3.2,1.4c0.4,0.2,0.9,0.4,1.3,0.6c0.7,0.3,1.4,0.6,2.2,0.9c1.8,0.8,3.6,1.6,5.5,2.4
			c22.6,10.3,61.9,19.4,68.3,20.9c-0.7,2.3-0.9,4.7-0.9,7.1c0,0,0,0,0,0.1c-11.5-2.9-26.3-4.6-33.3-4.5l0.4,13.8
			c9.5-0.2,22,2.1,30.2,4.2c-0.9,1.2-1.7,2.6-2.4,4.1c-8.3-2.7-20.1-4.6-41-5.7C99.4,248.5,99.4,248.5,96.7,242.3z M169.5,455.4
			c-1.1-3.1,1.9-7.2,5.1-10.4c2.6,2.5,4.8,4.4,6.2,5.7c1.6,9.5,5.6,17.6,12,24.3C180.2,466.6,170.6,458.6,169.5,455.4z M318.5,511.9
			c-9.1,9.7-25.8,14.8-48.4,14.8c-22.6,0-39.3-5.1-48.4-14.8c-8.4-8.9-7.8-18.8-7.8-19.2l-2.2-4.3c14.4,7,29.3,8.8,40.7,8.8
			c8.5,0,14.9-1,17.8-1.5c3.8,0.7,14.1,2.2,26.9,1.1c0,0,0,0,0,0c9.7-0.8,20.8-3.1,31.5-8.4l-2.2,4.2
			C326.4,493.1,326.9,503,318.5,511.9z M370.8,455.4c-1.2,3.3-10.6,11.2-23.3,19.7c6.4-6.7,10.4-14.9,12-24.4
			c1.4-1.3,3.6-3.2,6.2-5.7C368.8,448.1,371.9,452.2,370.8,455.4z M409.1,359.3c-3.5,24.5-32.9,56.2-49.4,72.3
			c-1.2-8.6-3.8-16.4-6.5-22.1c0.5-22-14.8-31.3-26.4-34c-1.2-8.1-3.1-24.7-0.6-36.2l-13.5-3c-4.1,18.5,1.1,45.4,1.3,46.6
			c0.6,3.1,3.2,5.4,6.3,5.6c2,0.1,8.6,1,13.5,5.6c-3.3-1.2-6.6-1.5-9.6-0.2c-2.5,1.1-6.8,4.1-6.8,12.5c0,13.7,1.2,27.3,9.7,34.1
			c4.7,3.8,10.7,4.8,17.9,3.2c0.5-0.1,1-0.3,1.4-0.5c0,1-0.1,2-0.2,3c0,0.1,0,0.2,0,0.2c0,0.4-0.1,0.7-0.1,1.1
			c-1.1,7.6-4.5,15.2-12,21.3c0,0,0,0,0,0v0c0,0-0.1,0.1-0.1,0.1c0,0,0,0,0,0c-25.2,20.1-60.1,13.5-62.1,13.1c-1-0.2-2-0.2-3.1,0h0
			c-0.2,0-2.6,0.5-6.4,0.9c-11.6,1.2-36.4,1.5-55.7-14c0,0,0,0-0.1,0c-0.2-0.2-0.4-0.3-0.6-0.5c0,0,0,0,0,0c0,0,0,0,0,0
			c-3.6-3-6.2-6.4-8.1-9.9c-1.9-3.6-3-7.6-3.6-12c0-0.4-0.1-0.8-0.2-1.1c-0.1-0.7-0.1-1.5-0.2-2.2c0.5,0.2,1,0.4,1.5,0.5
			c7.2,1.6,13.2,0.6,17.9-3.2c8.5-6.8,9.7-20.4,9.7-34.1c0-8.3-4.3-11.4-6.8-12.5c-3-1.2-6.3-1-9.6,0.2c4.9-4.6,11.5-5.5,13.4-5.6
			c3.1-0.2,5.8-2.5,6.3-5.6c0.2-1.1,5.4-28.1,1.3-46.6l-13.5,3c2.5,11.5,0.6,28.2-0.6,36.2c-11.6,2.7-26.9,11.9-26.4,34
			c-2.7,5.7-5.3,13.5-6.5,22.1c-16.5-16.1-45.9-47.9-49.4-72.3c-4.2-29.3,7.6-47.7,21.5-60.4c1.5,10.5,5.2,22.4,13.2,33
			c2.3,3.1,6.6,3.7,9.7,1.4c1.8-1.4,2.8-3.4,2.8-5.6c0-1.4-0.4-2.9-1.4-4.1c-4.3-5.8-7.1-12.2-8.8-18.5c9.8,2.4,21.7,0.3,28.5-1.5
			c3.6,4.3,6.7,7.6,8.8,8.9c2.7,1.7,6,1.8,8.7,0.3c3.1-1.7,9-4.8,9.9-44.1c0.6-25.7-8.5-43.5-8.7-43.9c-5.4-12.4-23.2-12.8-36.8-11
			c-0.7,0-1.4,0.1-2,0.3c-1,0.1-1.9,0.3-2.9,0.5c1.4-8.6,2.3-21.1-0.6-32.9c-2.6-10.9-6.7-18.4-10.1-23.2
			c10.6-5.9,32.9-15.8,56.2-9.4c2.1,0.6,4.5,0.1,6.3-1.4c0.1-0.1,15.7-12.8,44.5-12.8c28.5,0,44.4,12.7,44.6,12.8
			c1.7,1.4,4.1,1.9,6.3,1.4c23.2-6.4,45.6,3.5,56.2,9.4c-3.4,4.8-7.4,12.4-10,23.2c-2.9,11.8-1.9,24.3-0.6,32.9
			c-1-0.2-1.9-0.3-3-0.5c-0.6-0.2-1.2-0.3-1.8-0.3c-13.6-1.8-31.4-1.5-36.7,10.7c-0.4,0.7-9.4,18.6-8.8,44.2
			c0.9,39.2,6.8,42.4,9.9,44.1c2.8,1.5,6,1.3,8.7-0.3c2-1.3,5.2-4.5,8.8-8.9c6.9,1.7,18.7,3.9,28.5,1.5c-1.7,6.2-4.5,12.6-8.8,18.5
			c-0.9,1.2-1.4,2.7-1.4,4.1c0,2.1,1,4.2,2.8,5.6c3.1,2.3,7.4,1.6,9.7-1.4c7.9-10.7,11.6-22.6,13.2-33
			C401.4,311.6,413.2,329.9,409.1,359.3z M345.3,430.2c-1.1-0.3-2.2-0.4-3.4-0.1c-4.3,1-5.7-0.1-6.2-0.5c-4.1-3.3-4.5-15.6-4.5-21.6
			c2.6,1.5,6.2,4.2,9.3,7.1C341.5,417.3,343.9,423,345.3,430.2z M194.8,430.2c1.4-7.2,3.9-12.9,4.9-15.1c3.1-2.8,6.7-5.6,9.3-7.1
			c0,6-0.4,18.3-4.5,21.6c-0.5,0.4-1.9,1.5-6.2,0.5c-0.5-0.1-1-0.2-1.5-0.2C196.1,430,195.4,430.1,194.8,430.2z M357,285.7
			c3-4.2,8.4-7.7,13.5-10.4c1.7,1.9,3.5,4.6,4.1,7.6c0.3,1.9,0.1,3.9-1,5.9c-2.2,3.9-11.6,4-20.6,2.6
			C354.3,289.5,355.7,287.6,357,285.7z M345.8,277.4c-0.1,0.1-0.2,0.2-0.3,0.4c-3.2,4.8-6.7,9.7-9.9,13.7c-0.1,0.1-0.2,0.2-0.3,0.4
			c-1.1,1.4-2.1,2.7-3.1,3.8c-1-5.2-1.9-13.9-2.2-27.3c-0.5-22,7.2-37.4,7.5-38c1.1-2.5,6-3.5,12.5-3.5c2.9,0,6,0.2,9.3,0.6
			c2,1.5,3.5,3,4.4,4.6c1.9,3.4,1.5,7.4-0.9,13.4c-1.2,2.9-2.8,6.2-4.8,10.1c-0.9,1.8-1.8,3.5-2.6,5.3
			C353.1,266,349.6,271.8,345.8,277.4z M448.6,232.1c-2.4,4.2-3.8,7.5-5,10.2c-2.8,6.2-2.8,6.2-18.7,7c-15.1,0.8-30.2,3.5-40.7,6.3
			c-0.2-0.5-0.5-1-0.8-1.5c-0.6-1.1-1.3-2.2-1.9-3.2c8.2-2.1,20.8-4.5,30.2-4.2l0.4-13.8c-6.9-0.2-21.7,1.6-33.3,4.5
			c0-0.1,0-0.1,0-0.2c0-2.3-0.2-4.7-0.9-7c0,0,0,0,0.1,0c0.4-0.1,0.8-0.2,1.3-0.3c9.4-2.2,45.6-10.9,66.9-20.5
			c2.6-1.2,5.2-2.3,7.7-3.4c1.5-0.7,3.1-1.3,4.5-2C456.6,212.5,453.5,223.5,448.6,232.1z M513.4,126c-3.6,8.1-7.4,16.5-10.5,27
			c-3.6,12-15.5,18.8-25,24.2c-3.3,1.8-6.3,3.6-8.9,5.4c-1.6,1.1-3.2,2.1-4.9,3.1c-3.6,2.1-7.5,3.9-11.7,5.8
			c-1.3,0.6-2.7,1.2-4.1,1.8c-2.6,1.1-5.2,2.2-7.9,3.5c-17.4,7.9-46.7,15.4-59.8,18.6c-1.4-7.2-2.9-19.3-0.2-30.4
			c2.9-11.8,7.6-18.4,10-21.2c30.8-0.4,82.9-17.1,91.4-38.6c4.9-12.4,11.5-25.2,17.4-36.5c7-13.5,13-25.2,14.7-33.3
			c2.4-11.5,7.1-27,10.8-35.3c0.8,3.7,1.6,9.5,2.3,18.5C530.8,87.1,522.4,106,513.4,126z"/>
		<path d="M318.3,225.7c5.7-5.7,18.2-11.7,22.5-13.5l-1.9-13.2l-19.4-2.1c4-6.5,7.7-15.8,7.5-28l-13.8,0.2
			c0.3,18.4-11,27.4-11.4,27.8l3.4,12.4l10.2,1.1c-2.5,1.8-4.9,3.6-6.8,5.6c-10.4,10.4-20.9,29.4-9.9,84.6l13.6-2.7
			C301.1,242.8,313.6,230.4,318.3,225.7z"/>
		<path d="M270.1,374.6c-24.4,0-40,7.9-40.6,8.3c-3.4,1.8-4.7,5.9-3,9.3c1.7,3.4,5.9,4.7,9.3,3c0.1-0.1,13.4-6.7,34.3-6.7
			s34.2,6.7,34.3,6.7c1,0.5,2.1,0.8,3.2,0.8c2.5,0,4.9-1.4,6.1-3.7c1.8-3.4,0.4-7.6-3-9.3C310.1,382.6,294.6,374.6,270.1,374.6z"/>
	</g>
</g>
<path class="st0" d="M161,211c-9.3-0.7-18.7-1.3-28-2c-12.5-3.2-30.6-9.1-50-21c0,0-18.4-11.3-32-25C10.5,122.1,15.5,38.2,16,31
	c6.7,16.3,13.3,32.7,20,49c10.3,20.5,20.3,36.1,28,47c6.5,9.2,11.1,14.7,18,20c10.4,7.9,20.7,11,28.5,13.3
	c23.1,6.8,29.8,1.6,38.5,7.7C155.6,172.6,162.6,183.3,161,211z"/>
<path class="st0" d="M413.7,206.5c5.1-3.2,10.2-6.3,15.3-9.5c8.7-1,21.7-3.7,35.2-11.2c25.5-14.1,37-36.3,44.8-51.8
	c23.1-46,19.2-92.2,15.9-113.9C518.8,46.8,510.5,67.7,504,82c-10.4,22.7-16.2,35.5-30,49c-11.3,11.1-30,29.4-55,30
	c-11.9,0.3-21.2-3.6-28.4,2.8c-5.1,4.5-7.4,12.5-10,21.2c-0.8,2.6-0.5,2.1-3.6,14c-1.1,4.1-1.6,6-2,9c-0.7,5.4-1.6,11.3,1,13
	c1.7,1.1,3.5-0.4,10-3c9.1-3.6,10.6-2.6,18-6C406.3,210.9,409.8,209.2,413.7,206.5z"/>
<path class="st0" d="M486,245"/>
<path class="st0" d="M690,145"/>
</svg>
