<?xml version="1.0" encoding="iso-8859-1"?>
<!-- Generator: Adobe Illustrator 19.1.0, SVG Export Plug-In . SVG Version: 6.00 Build 0)  -->
<svg version="1.1" id="Capa_1" xmlns="http://www.w3.org/2000/svg" xmlns:xlink="http://www.w3.org/1999/xlink" x="0px" y="0px"
	 viewBox="0 0 541.82 541.82" style="enable-background:new 0 0 541.82 541.82;" xml:space="preserve">
<g>
	<g>
		<path d="M231.762,215.915c-1.95-1.957-4.328-3.838-6.852-5.587l10.212-1.092l3.471-12.362c-0.478-0.367-11.761-9.39-11.471-27.816
			l-13.828-0.214c-0.187,12.252,3.491,21.565,7.467,28.03l-19.38,2.081l-1.929,13.254c4.328,1.811,16.815,7.757,22.54,13.489
			c4.688,4.674,17.12,17.099,6.147,72.17l13.559,2.703C252.712,245.334,242.182,226.313,231.762,215.915z"/>
		<path d="M540.931,37.496c-1.673-22.478-4.57-35.615-14.388-36.251c-0.166-0.014-0.346-0.014-0.512-0.014
			c-13.006,0-21.579,32.075-25.562,51.372c-1.293,6.299-7.19,17.707-13.427,29.779c-5.994,11.608-12.791,24.759-17.942,37.806
			c-5.184,13.134-50.069,30.111-79.241,29.849c-7.671-5.105-36.744-22.378-69.312-15.046c-6.603-4.39-23.909-13.842-50.425-13.842
			c-26.523,0-43.815,9.452-50.418,13.842c-32.505-7.302-61.581,9.927-69.287,15.038c-28.059,0.253-66.882-16.226-73.531-25.908
			c-14.14-20.583-33.174-54.939-35.601-66.728C41.174,56.847,26.087,3.636,9.604,6.139C-0.255,7.564-1.085,20.88,0.823,43.394
			c4.854,57.297,10.247,73.871,17.714,96.791c1.804,5.545,3.747,11.519,5.856,18.585c4.757,16.006,18.654,23.501,28.797,28.977
			c3.222,1.735,6.271,3.381,8.207,4.881c1.555,1.203,3.159,2.323,4.791,3.36c1.217,7.903,4.965,27.898,13.379,42.895
			c2.054,3.665,3.381,6.645,4.446,9.044c5.463,12.3,9.182,14.153,30.63,15.225c25.398,1.266,35.462,3.917,41.907,6.675
			c-2.15,3.177-4.073,7.133-4.695,11.627c-12.722,9.686-40.876,34.121-34.363,79.775c3.646,25.507,29.155,55.582,47.185,74.044
			c-5.461,5.402-11.807,14.349-8.258,24.606c3.983,11.498,31.349,28.894,43.822,36.334c0.512,5.69,2.683,15.709,11.104,24.856
			c11.92,12.951,31.694,19.519,58.777,19.519c27.082,0,46.857-6.568,58.776-19.525c8.421-9.154,10.599-19.173,11.118-24.856
			c12.473-7.44,39.839-24.836,43.822-36.334c3.549-10.256-2.796-19.203-8.257-24.605c18.028-18.462,43.536-48.533,47.177-74.038
			c6.52-45.675-21.669-70.116-34.384-79.796c-0.622-4.398-2.479-8.264-4.554-11.392c9.725-2.815,25.642-6.082,41.775-6.903
			c21.448-1.072,25.168-2.925,30.63-15.225c1.072-2.4,2.393-5.386,4.446-9.044c8.415-14.996,12.155-34.978,13.379-42.895
			c1.051-0.671,2.095-1.376,3.118-2.116c1.923-1.383,4.681-2.953,7.606-4.605c11.091-6.285,26.274-14.893,31.432-32.254
			c2.877-9.652,6.431-17.645,9.867-25.368C535.282,110.91,544.81,89.497,540.931,37.496z M78.788,187.301
			c-3.201-1.673-6.181-3.478-8.933-5.614c-2.835-2.199-6.361-4.1-10.095-6.112c-8.898-4.805-18.986-10.247-22.118-20.756
			c-2.136-7.205-4.114-13.275-5.953-18.924c-7.447-22.865-12.363-37.966-17.085-93.673c-0.595-7.156-0.767-12.279-0.726-15.909
			c5.49,9.839,12.439,26.952,13.863,33.859c3.063,14.894,24.047,51.843,37.744,71.783c10.5,15.275,54.144,31.444,84.193,31.877
			c2.408,2.781,7.161,9.428,10.011,21.17c2.664,11.003,1.192,23.164-0.177,30.371c-13.078-3.153-42.341-10.654-59.774-18.579
			c-2.711-1.231-5.352-2.379-7.91-3.485C87.216,191.311,82.812,189.41,78.788,187.301z M165.974,281.688
			c0.768-2.406,2.33-4.674,3.817-6.409c5.117,2.6,10.461,6.105,13.4,10.226c1.355,2.005,2.731,3.996,4.114,5.939
			c-9.037,1.445-18.454,1.293-20.646-2.593C165.276,286.417,165.289,283.949,165.974,281.688z M184.746,261.036
			c-0.857-1.77-1.749-3.54-2.641-5.303c-1.922-3.803-3.505-7.052-4.66-9.894c-0.014-0.041-0.034-0.09-0.055-0.138
			c-2.42-6.092-2.814-10.185-0.823-13.628c0.913-1.556,2.309-3.008,4.259-4.46c10.724-1.231,20.411-0.477,22.07,3.284
			c0.083,0.159,7.826,15.404,7.301,37.578c-0.318,13.372-1.265,22.049-2.226,27.242c-0.996-1.196-2.088-2.551-3.243-4.031
			c-0.042-0.055-0.083-0.11-0.118-0.152c-3.201-4.093-6.727-8.967-10.039-13.89c-0.063-0.097-0.132-0.18-0.194-0.277
			C190.644,271.787,187.145,266.021,184.746,261.036z M96.662,242.302c-1.183-2.662-2.655-5.98-5.027-10.198
			c-4.847-8.643-7.972-19.643-9.846-28.099c1.058,0.471,2.136,0.941,3.215,1.404c0.442,0.194,0.892,0.394,1.341,0.588
			c0.712,0.311,1.438,0.622,2.164,0.94c1.805,0.789,3.63,1.591,5.504,2.441c22.607,10.28,61.912,19.408,68.33,20.87
			c-0.677,2.346-0.938,4.721-0.877,7.101c0,0.02,0.003,0.038,0.003,0.058c-11.545-2.939-26.333-4.635-33.278-4.508l0.394,13.828
			c9.457-0.249,22.028,2.087,30.201,4.209c-0.852,1.229-1.671,2.588-2.401,4.077c-8.316-2.664-20.059-4.637-41.049-5.686
			C99.421,248.525,99.421,248.525,96.662,242.302z M169.486,455.357c-1.068-3.093,1.913-7.237,5.061-10.355
			c2.627,2.492,4.766,4.442,6.202,5.73c1.604,9.458,5.625,17.597,11.977,24.316C180.2,466.564,170.609,458.617,169.486,455.357z
			 M318.521,511.922c-9.106,9.708-25.845,14.838-48.399,14.838c-22.561,0-39.293-5.137-48.392-14.838
			c-8.359-8.912-7.834-18.806-7.813-19.159l-2.224-4.268c14.373,7.005,29.294,8.762,40.66,8.762c8.456,0,14.941-0.968,17.777-1.484
			c3.768,0.677,14.084,2.178,26.861,1.106c0.007,0,0.007,0,0.014,0c9.67-0.821,20.765-3.131,31.544-8.383l-2.215,4.198
			C326.362,493.109,326.887,503.01,318.521,511.922z M370.771,455.351c-1.153,3.329-10.649,11.217-23.273,19.741
			c6.377-6.717,10.408-14.876,12.01-24.359c1.436-1.288,3.573-3.238,6.199-5.73C368.793,448.065,371.853,452.221,370.771,455.351z
			 M409.054,359.257c-3.484,24.469-32.89,56.191-49.415,72.329c-1.162-8.594-3.762-16.4-6.472-22.118
			c0.519-22.042-14.754-31.286-26.391-33.976c-1.203-8.076-3.104-24.704-0.567-36.237l-13.503-2.973
			c-4.066,18.468,1.065,45.447,1.286,46.581c0.588,3.07,3.202,5.359,6.306,5.594c1.985,0.145,8.609,0.988,13.49,5.614
			c-3.34-1.169-6.645-1.452-9.59-0.201c-2.544,1.078-6.817,4.127-6.817,12.459c0,13.676,1.182,27.263,9.728,34.087
			c4.702,3.754,10.71,4.805,17.901,3.201c0.497-0.111,0.974-0.284,1.417-0.491c-0.048,1.009-0.124,2.033-0.242,3.042
			c-0.014,0.083-0.021,0.159-0.035,0.249c-0.034,0.373-0.09,0.74-0.145,1.106c-1.141,7.585-4.536,15.19-12.017,21.254
			c0,0-0.007,0.007-0.014,0.007v0.007c-0.048,0.035-0.097,0.077-0.145,0.118c-0.007,0.007-0.021,0.014-0.028,0.014
			c-25.168,20.134-60.119,13.476-62.11,13.068c-0.975-0.215-2.005-0.242-3.056-0.014h-0.007c-0.221,0.048-2.586,0.539-6.437,0.933
			c-11.554,1.197-36.424,1.48-55.742-13.98c-0.021-0.013-0.041-0.027-0.062-0.048c-0.214-0.173-0.421-0.339-0.645-0.504
			c0-0.007,0,0-0.007-0.007c0,0,0,0-0.007-0.007c-3.596-3.022-6.216-6.389-8.083-9.936c-1.86-3.575-3.043-7.564-3.568-12.003
			c-0.048-0.387-0.117-0.761-0.228-1.127c-0.069-0.74-0.117-1.48-0.152-2.213c0.484,0.228,0.989,0.408,1.528,0.539
			c7.177,1.611,13.206,0.56,17.894-3.201c8.546-6.825,9.728-20.411,9.728-34.087c0-8.338-4.273-11.387-6.817-12.459
			c-2.959-1.244-6.264-0.961-9.583,0.201c4.874-4.618,11.484-5.469,13.448-5.614c3.139-0.208,5.752-2.503,6.347-5.594
			c0.228-1.141,5.352-28.113,1.286-46.581l-13.503,2.973c2.53,11.533,0.629,28.161-0.574,36.237
			c-11.622,2.69-26.896,11.934-26.384,33.976c-2.711,5.718-5.31,13.524-6.472,22.118c-16.518-16.138-45.923-47.867-49.422-72.329
			c-4.19-29.323,7.605-47.66,21.468-60.43c1.549,10.489,5.234,22.374,13.158,33.036c2.275,3.056,6.596,3.692,9.673,1.424
			c1.818-1.362,2.786-3.443,2.786-5.559c0-1.431-0.442-2.876-1.362-4.121c-4.349-5.849-7.114-12.245-8.836-18.488
			c9.839,2.434,21.697,0.269,28.542-1.466c3.602,4.335,6.741,7.585,8.76,8.857c2.725,1.687,5.988,1.812,8.733,0.339
			c3.139-1.694,8.982-4.847,9.915-44.071c0.608-25.672-8.456-43.503-8.657-43.856c-5.448-12.39-23.162-12.798-36.776-11.049
			c-0.712-0.049-1.369,0.089-2.04,0.283c-0.988,0.138-1.943,0.297-2.869,0.456c1.376-8.615,2.316-21.067-0.553-32.911
			c-2.634-10.869-6.658-18.398-10.053-23.231c10.579-5.94,32.905-15.778,56.24-9.369c2.15,0.574,4.508,0.09,6.257-1.355
			c0.145-0.131,15.688-12.812,44.548-12.812c28.514,0,44.431,12.701,44.562,12.812c1.728,1.438,4.065,1.936,6.25,1.355
			c23.204-6.41,45.606,3.457,56.233,9.389c-3.388,4.826-7.405,12.356-10.039,23.211c-2.876,11.844-1.929,24.289-0.56,32.904
			c-0.954-0.166-1.943-0.332-2.959-0.477c-0.594-0.166-1.21-0.256-1.818-0.256c-13.607-1.804-31.376-1.507-36.728,10.655
			c-0.38,0.74-9.444,18.572-8.829,44.244c0.934,39.231,6.776,42.377,9.915,44.071c2.759,1.493,6.016,1.348,8.733-0.346
			c2.019-1.258,5.158-4.508,8.753-8.85c6.851,1.729,18.73,3.893,28.548,1.466c-1.714,6.236-4.48,12.632-8.836,18.488
			c-0.92,1.245-1.362,2.69-1.362,4.121c0,2.116,0.961,4.204,2.786,5.559c3.084,2.275,7.405,1.639,9.673-1.424
			c7.937-10.683,11.615-22.582,13.164-33.029C401.448,311.598,413.244,329.941,409.054,359.257z M345.334,430.218
			c-1.058-0.304-2.227-0.353-3.402-0.09c-4.342,1.016-5.739-0.132-6.209-0.512c-4.086-3.264-4.48-15.64-4.515-21.593
			c2.6,1.494,6.23,4.211,9.286,7.067C341.497,417.289,343.91,423.007,345.334,430.218z M194.8,430.238
			c1.445-7.191,3.886-12.902,4.93-15.149c3.069-2.841,6.699-5.566,9.299-7.066c-0.035,5.96-0.429,18.33-4.515,21.593
			c-0.463,0.367-1.888,1.521-6.202,0.512c-0.526-0.111-1.037-0.166-1.542-0.166C196.092,429.962,195.435,430.059,194.8,430.238z
			 M356.95,285.656c2.98-4.176,8.366-7.723,13.496-10.35c1.66,1.93,3.519,4.647,4.121,7.606c0.339,1.915,0.145,3.941-0.989,5.939
			c-2.185,3.893-11.623,4.038-20.632,2.593C354.308,289.529,355.657,287.593,356.95,285.656z M345.838,277.416
			c-0.09,0.124-0.173,0.242-0.263,0.366c-3.222,4.784-6.749,9.659-9.936,13.731c-0.103,0.124-0.193,0.249-0.283,0.387
			c-1.093,1.397-2.13,2.69-3.077,3.824c-0.954-5.185-1.908-13.869-2.226-27.262c-0.526-21.96,7.218-37.433,7.474-37.952
			c1.093-2.468,6.002-3.547,12.501-3.547c2.87,0,6.043,0.214,9.334,0.595c2.039,1.508,3.477,3.008,4.397,4.626
			c1.895,3.409,1.501,7.447-0.857,13.4c-1.162,2.89-2.773,6.215-4.75,10.115c-0.892,1.77-1.791,3.54-2.648,5.317
			C353.105,266.021,349.585,271.809,345.838,277.416z M448.625,232.114c-2.372,4.224-3.845,7.536-5.027,10.198
			c-2.759,6.23-2.759,6.23-18.675,7.025c-15.149,0.754-30.18,3.547-40.745,6.271c-0.238-0.495-0.5-0.988-0.773-1.479
			c-0.606-1.141-1.26-2.202-1.936-3.179c8.168-2.117,20.791-4.467,30.207-4.211l0.394-13.828c-6.881-0.152-21.71,1.553-33.284,4.507
			c0.001-0.065,0.005-0.128,0.005-0.193c0.048-2.337-0.213-4.667-0.875-6.97c0.022-0.005,0.039-0.009,0.061-0.014
			c0.352-0.083,0.802-0.187,1.341-0.311c9.431-2.178,45.606-10.855,66.929-20.549c2.628-1.196,5.193-2.302,7.675-3.381
			c1.534-0.67,3.056-1.32,4.549-1.984C456.597,212.464,453.472,223.471,448.625,232.114z M513.446,126.03
			c-3.623,8.131-7.357,16.532-10.482,27.041c-3.574,12.017-15.453,18.758-25.001,24.172c-3.257,1.839-6.34,3.589-8.871,5.414
			c-1.556,1.12-3.181,2.15-4.868,3.132c-3.588,2.075-7.55,3.907-11.733,5.753c-1.321,0.581-2.676,1.168-4.059,1.77
			c-2.572,1.107-5.2,2.247-7.917,3.485c-17.42,7.921-46.697,15.426-59.777,18.58c-1.377-7.182-2.855-19.31-0.17-30.375
			c2.856-11.766,7.623-18.418,9.999-21.166c30.808-0.438,82.905-17.078,91.393-38.565c4.895-12.397,11.526-25.216,17.368-36.534
			c6.984-13.503,13.013-25.174,14.693-33.333c2.378-11.547,7.073-26.972,10.834-35.345c0.767,3.699,1.617,9.493,2.295,18.481
			C530.766,87.062,522.351,105.993,513.446,126.03z"/>
		<path d="M318.252,225.697c5.704-5.704,18.205-11.671,22.54-13.496l-1.936-13.247l-19.373-2.081
			c3.975-6.458,7.654-15.785,7.467-28.03l-13.828,0.214c0.291,18.426-10.993,27.449-11.422,27.788l3.422,12.397l10.205,1.092
			c-2.517,1.75-4.895,3.637-6.845,5.587c-10.406,10.392-20.943,29.413-9.929,84.65l13.552-2.704
			C301.133,242.803,313.564,230.378,318.252,225.697z"/>
		<path d="M270.128,374.648c-24.441,0-39.998,7.923-40.648,8.262c-3.381,1.757-4.694,5.905-2.952,9.293
			c1.743,3.388,5.905,4.723,9.3,3.001c0.138-0.069,13.441-6.727,34.301-6.727c20.86,0,34.163,6.658,34.301,6.727
			c1.003,0.519,2.088,0.761,3.153,0.761c2.496,0,4.909-1.355,6.145-3.728c1.757-3.395,0.436-7.564-2.952-9.327
			C310.126,382.572,294.569,374.648,270.128,374.648z"/>
	</g>
</g>
<g>
</g>
<g>
</g>
<g>
</g>
<g>
</g>
<g>
</g>
<g>
</g>
<g>
</g>
<g>
</g>
<g>
</g>
<g>
</g>
<g>
</g>
<g>
</g>
<g>
</g>
<g>
</g>
<g>
</g>
</svg>
