<?xml version="1.0" encoding="utf-8"?>
<!-- Generator: Adobe Illustrator 21.1.0, SVG Export Plug-In . SVG Version: 6.00 Build 0)  -->
<svg version="1.1" id="Capa_1" xmlns="http://www.w3.org/2000/svg" xmlns:xlink="http://www.w3.org/1999/xlink" x="0px" y="0px"
	 viewBox="0 0 33 33" style="enable-background:new 0 0 33 33;" xml:space="preserve">
<style type="text/css">
	.st0{fill:#FF0000;}
</style>
<g>
	<path class="st0" d="M25.7,0.3c0.1,0,0.2,0,0.2,0.1c0.2,0.1,0.3,0.3,0.3,0.4v7.1c4.4,2.3,6.8,6.3,6.8,11.3
		c0,7.7-7.1,13.5-16.5,13.5S0,26.9,0,19.2C0,11.5,7.1,5.6,16.5,5.6c0.3,0,0.6,0,0.9,0l0,0l8-5.3C25.5,0.3,25.6,0.3,25.7,0.3z
		 M16.5,31.7c8.8,0,15.5-5.4,15.5-12.5c0-3.3-1.1-7.8-6.5-10.5c-0.2-0.1-0.3-0.3-0.3-0.4V1.7l-7.4,4.9c-0.1,0.1-0.2,0.1-0.3,0.1
		l-0.2,0c-0.3,0-0.6,0-0.9,0C7.7,6.6,1,12,1,19.2S7.7,31.7,16.5,31.7z"/>
</g>
</svg>
